HIERARCHY
ROOT hip
{
  OFFSET 0 0 0
  CHANNELS 6 Xposition Yposition Zposition Zrotation Yrotation Xrotation
  JOINT abdomen
  {
    OFFSET 0 20.6881 -0.73152
    CHANNELS 3 Zrotation Xrotation Yrotation
    JOINT chest
    {
      OFFSET 0 11.7043 -0.48768
      CHANNELS 3 Zrotation Xrotation Yrotation
      JOINT neck
      {
        OFFSET 0 22.1894 -2.19456
        CHANNELS 3 Zrotation Xrotation Yrotation
        JOINT head
        {
          OFFSET -0.24384 7.07133 1.2192
          CHANNELS 3 Zrotation Xrotation Yrotation
          JOINT leftEye
          {
            OFFSET 4.14528 8.04674 8.04672
            CHANNELS 3 Zrotation Xrotation Yrotation
            End Site
            {
              OFFSET 1 0 0
            }
          }
          JOINT rightEye
          {
            OFFSET -3.6576 8.04674 8.04672
            CHANNELS 3 Zrotation Xrotation Yrotation
            End Site
            {
              OFFSET 1 0 0
            }
          }
        }
      }
      JOINT rCollar
      {
        OFFSET -2.68224 19.2634 -4.8768
        CHANNELS 3 Zrotation Xrotation Yrotation
        JOINT rShldr
        {
          OFFSET -8.77824 -1.95073 1.46304
          CHANNELS 3 Zrotation Xrotation Yrotation
          JOINT rForeArm
          {
            OFFSET -28.1742 -1.7115 0.48768
            CHANNELS 3 Zrotation Xrotation Yrotation
            JOINT rHand
            {
              OFFSET -22.5879 0.773209 7.07136
              CHANNELS 3 Zrotation Xrotation Yrotation
              JOINT rThumb1
              {
                OFFSET -1.2192 -0.487915 3.41376
                CHANNELS 3 Zrotation Xrotation Yrotation
                JOINT rThumb2
                {
                  OFFSET -3.37035 -0.52449 3.41376
                  CHANNELS 3 Zrotation Xrotation Yrotation
                  End Site
                  {
                    OFFSET -1.78271 -1.18214 1.43049
                  }
                }
              }
              JOINT rIndex1
              {
                OFFSET -7.75947 0.938293 5.60832
                CHANNELS 3 Zrotation Xrotation Yrotation
                JOINT rIndex2
                {
                  OFFSET -2.54057 -0.884171 1.56538
                  CHANNELS 3 Zrotation Xrotation Yrotation
                  End Site
                  {
                    OFFSET -1.62519 -0.234802 1.16502
                  }
                }
              }
              JOINT rMid1
              {
                OFFSET -8.24714 1.18213 3.41376
                CHANNELS 3 Zrotation Xrotation Yrotation
                JOINT rMid2
                {
                  OFFSET -3.10165 -0.590103 1.0647
                  CHANNELS 3 Zrotation Xrotation Yrotation
                  End Site
                  {
                    OFFSET -2.48547 -0.328903 0.83742
                  }
                }
              }
              JOINT rRing1
              {
                OFFSET -8.82822 0.546677 1.51678
                CHANNELS 3 Zrotation Xrotation Yrotation
                JOINT rRing2
                {
                  OFFSET -2.60934 -0.819778 -0.0198488
                  CHANNELS 3 Zrotation Xrotation Yrotation
                  End Site
                  {
                    OFFSET -2.33842 -0.294052 0.168128
                  }
                }
              }
              JOINT rPinky1
              {
                OFFSET -8.27202 -0.0477905 -0.4584
                CHANNELS 3 Zrotation Xrotation Yrotation
                JOINT rPinky2
                {
                  OFFSET -1.82734 -0.647385 -0.700984
                  CHANNELS 3 Zrotation Xrotation Yrotation
                  End Site
                  {
                    OFFSET -1.69225 -0.51767 -0.607171
                  }
                }
              }
            }
          }
        }
      }
      JOINT lCollar
      {
        OFFSET 2.68224 19.2634 -4.8768
        CHANNELS 3 Zrotation Xrotation Yrotation
        JOINT lShldr
        {
          OFFSET 8.77824 -1.95073 1.46304
          CHANNELS 3 Zrotation Xrotation Yrotation
          JOINT lForeArm
          {
            OFFSET 28.1742 -1.7115 0.48768
            CHANNELS 3 Zrotation Xrotation Yrotation
            JOINT lHand
            {
              OFFSET 22.5879 0.773209 7.07136
              CHANNELS 3 Zrotation Xrotation Yrotation
              JOINT lThumb1
              {
                OFFSET 1.2192 -0.487915 3.41376
                CHANNELS 3 Zrotation Xrotation Yrotation
                JOINT lThumb2
                {
                  OFFSET 3.37035 -0.52449 3.41376
                  CHANNELS 3 Zrotation Xrotation Yrotation
                  End Site
                  {
                    OFFSET 1.78271 -1.18214 1.43049
                  }
                }
              }
              JOINT lIndex1
              {
                OFFSET 7.75947 0.938293 5.60832
                CHANNELS 3 Zrotation Xrotation Yrotation
                JOINT lIndex2
                {
                  OFFSET 2.54057 -0.884171 1.56538
                  CHANNELS 3 Zrotation Xrotation Yrotation
                  End Site
                  {
                    OFFSET 1.62519 -0.234802 1.16502
                  }
                }
              }
              JOINT lMid1
              {
                OFFSET 8.24714 1.18213 3.41376
                CHANNELS 3 Zrotation Xrotation Yrotation
                JOINT lMid2
                {
                  OFFSET 3.10165 -0.590103 1.0647
                  CHANNELS 3 Zrotation Xrotation Yrotation
                  End Site
                  {
                    OFFSET 2.48547 -0.328903 0.83742
                  }
                }
              }
              JOINT lRing1
              {
                OFFSET 8.82822 0.546677 1.51678
                CHANNELS 3 Zrotation Xrotation Yrotation
                JOINT lRing2
                {
                  OFFSET 2.60934 -0.819778 -0.0198488
                  CHANNELS 3 Zrotation Xrotation Yrotation
                  End Site
                  {
                    OFFSET 2.33842 -0.294052 0.168128
                  }
                }
              }
              JOINT lPinky1
              {
                OFFSET 8.27202 -0.0477905 -0.4584
                CHANNELS 3 Zrotation Xrotation Yrotation
                JOINT lPinky2
                {
                  OFFSET 1.82734 -0.647385 -0.700984
                  CHANNELS 3 Zrotation Xrotation Yrotation
                  End Site
                  {
                    OFFSET 1.69225 -0.51767 -0.607171
                  }
                }
              }
            }
          }
        }
      }
    }
  }
  JOINT rButtock
  {
    OFFSET -8.77824 4.35084 1.2192
    CHANNELS 3 Zrotation Xrotation Yrotation
    JOINT rThigh
    {
      OFFSET 0 -1.70687 -2.19456
      CHANNELS 3 Zrotation Xrotation Yrotation
      JOINT rShin
      {
        OFFSET 0 -36.8199 0.73152
        CHANNELS 3 Zrotation Xrotation Yrotation
        JOINT rFoot
        {
          OFFSET 0.73152 -45.1104 -5.12064
          CHANNELS 3 Zrotation Xrotation Yrotation
          End Site
          {
            OFFSET -1.1221 -3.69964 12.103
          }
        }
      }
    }
  }
  JOINT lButtock
  {
    OFFSET 8.77824 4.35084 1.2192
    CHANNELS 3 Zrotation Xrotation Yrotation
    JOINT lThigh
    {
      OFFSET 0 -1.70687 -2.19456
      CHANNELS 3 Zrotation Xrotation Yrotation
      JOINT lShin
      {
        OFFSET 0 -36.8199 0.73152
        CHANNELS 3 Zrotation Xrotation Yrotation
        JOINT lFoot
        {
          OFFSET -0.73152 -45.1104 -5.12064
          CHANNELS 3 Zrotation Xrotation Yrotation
          End Site
          {
            OFFSET 1.1221 -3.69964 12.103
          }
        }
      }
    }
  }
}
MOTION
Frames:	8
Frame Time:	0.03333
12.1352 60.960499999999996 -62.1144 -17.082012 -56.515461 15.719841 3.135301 14.330426 -12.478723 4.27908 -13.153649 22.265202 -8.044652 24.847105 -94.110199 25.593045 14.450091 132.01506 -0.001646 -0.0 0.002229 -0.001726 -0.0 0.003251 -153.04999 10.023681 158.668758 -116.605775 41.885715 131.024238 -160.768022 1.822867 31.279027 -153.811024 14.592682 138.880833 -7.758931 7.438903 1.682227 3.914738 -3.120265 1.981196 -13.870642 18.815391 9.290084 6.097494 4.549882 0.014232 23.904118 -61.333768 1.400409 167.662992 -64.033024 133.02172 -0.023455 -1.725068 -0.54299 7.055985 29.717273 4.675378 8.142908 25.599913 7.178686 45.450895 83.527298 -8.519589 152.282248 13.460932 -157.739606 -154.072394 26.89696 -160.794308 -171.496034 -11.955569 -104.559243 -170.670992 -14.050126 -144.43959 0.544499 0.535994 -0.085872 25.330613 21.312617 -22.608879 151.354542 -17.158002 -121.133135 -10.792355 0.942051 9.735296 -89.035456 -81.392955 -59.760601 174.551761 -36.916954 -143.393413 145.119781 0.309586 179.226771 23.554418 -71.731653 44.765918 144.783463 10.845441 141.478045 162.61972 56.40174 146.640105 -0.002329 -0.000427 -0.001165 -33.436252 -33.049152 93.738054 93.115674 -46.174113 4.785186 176.281894 -2.796831 114.442068 0.0 -0.000427 0.000647 85.661222 -36.89278 -4.471545 -88.297352 17.428921 173.908428 -63.952617 -58.725887 -163.331606
12.403500000000001 60.420300000000005 -62.0246 -16.490485 -57.37834 15.433979 2.216781 9.211154 180.0 -2.03721 9.493951 -170.847809 12.13115 22.964465 104.659658 -22.217896 12.762048 -64.038667 0.001369 0.0 0.000873 0.001442 -0.0 -0.000168 -52.19521 -86.543948 -73.90317 152.445383 -60.982883 159.00165 -44.492703 -8.675674 -175.488488 -166.739097 -26.869901 154.892298 -0.491442 0.484789 0.076716 -138.676771 -42.688822 118.984582 -6.814938 10.182019 4.247248 16.316001 -8.558013 -1.343845 -15.42302 32.961694 11.295718 3.20821 0.424937 0.063967 -145.118304 0.185236 -179.187077 -154.167669 -12.523682 -177.504777 32.00463 83.321514 6.239105 -128.560182 -29.599641 -125.464607 159.219205 -48.028336 -170.416354 -135.775846 42.549327 143.266875 -12.83767 -27.03644 -40.667729 11.51837 36.487805 -2.78857 93.743748 37.964443 -53.548644 33.540393 -6.450468 -37.045349 108.428244 34.161316 -91.742901 166.597431 -15.226654 -116.221695 145.287607 29.524793 -132.693649 42.345744 58.321963 -36.567752 73.164769 -72.142409 90.198147 132.329505 74.487303 -151.029353 -2.706341 7.525667 -2.470223 20.136902 -37.772582 20.822001 179.997299 75.748982 0.002786 146.575199 32.847402 50.585823 93.724288 50.052263 -173.438083 113.485989 44.883519 2.363995 -179.992669 75.748982 -0.005016 -128.419986 -5.81117 103.340867 95.509315 -17.54582 54.645579 -32.70744 5.862338 -165.965747
12.5977 59.9499 -62.000299999999996 -15.282955 -58.543642 14.660099 1.364606 13.619078 -0.266106 2.351705 -14.607917 10.07383 -7.164483 28.282442 -116.228057 22.428531 24.357449 153.952691 0.000855 -0.0 -0.002223 -0.004872 0.0 -0.002083 -155.417408 -2.951454 161.718447 51.743321 -46.370829 44.585369 -95.932142 39.185116 -123.941462 -166.722625 -73.616016 173.908398 -38.896331 29.386312 16.069278 -118.279275 -18.480533 93.450502 12.216345 -21.784781 -5.119907 -112.118153 38.395972 89.98078 -158.521697 -0.192278 142.144784 179.924533 -48.680896 140.899674 -67.609545 -72.074274 -84.374139 -64.728714 -82.498484 -90.685803 -145.175428 12.067206 -141.822957 -156.188963 38.648071 -146.15378 159.221044 -48.38081 -170.492051 178.028067 -24.956926 145.23446 -132.108652 -5.60541 -174.667993 135.089465 70.7704 -114.116784 -2.012474 -1.996685 0.274379 20.563978 18.986238 -16.881994 -5.921478 -10.174455 2.969577 -18.782057 -8.652761 1.572624 -0.54165 -1.589821 0.295335 42.072868 58.558025 -36.100876 145.121934 1.973873 179.748012 -11.051896 13.767349 7.371404 -7.65123 23.805531 -6.774813 138.210485 -13.869915 135.392887 -0.051624 0.000307 -0.038718 -34.381731 -34.600829 -0.0 98.630744 61.35289 175.331313 91.091527 48.693542 23.512253 -0.0 -0.000133 -0.000794 85.794167 -36.196563 -4.431516 -88.445844 16.536091 160.094442 -148.325685 40.838745 62.521511
12.7301 59.61300000000001 -61.971399999999996 -15.474649 -59.294133 14.909272 1.930634 8.844732 -160.157139 2.186847 10.025116 169.70958 -5.615347 14.430019 -28.159274 18.139024 -9.448936 70.956227 -0.000193 -0.0 0.000582 -0.000388 0.0 -0.005047 -131.055567 54.037058 134.942147 -142.259483 -5.533227 164.432896 -2.844008 -24.320853 105.151064 -14.162127 -50.357783 -13.500264 -6.58057 6.345183 1.364966 29.65758 -41.278217 -12.675682 -127.854081 18.703974 107.507561 -162.840928 -10.915796 117.900326 -36.036453 51.723275 29.831659 175.177365 -56.717855 138.241535 -74.839306 72.961817 92.827644 5.872182 3.601718 -4.09047 11.407028 38.078226 9.692529 -146.540988 6.951756 -142.254089 158.442576 -29.712962 -166.857169 105.493518 -66.397822 79.149466 99.51414 -47.07748 97.048746 -12.451565 -28.322208 -6.035317 172.354897 -10.035996 -89.939297 38.320441 -23.660702 -5.144516 100.823368 37.733494 -85.162197 136.469549 30.921842 -104.038443 -7.904396 -24.807593 3.012251 -11.286736 -24.950444 1.541659 0.000569 -0.060903 0.018732 148.206197 -76.780018 171.079561 -12.988279 44.344125 -10.764106 127.862617 -30.888254 125.363848 179.734329 75.749851 0.204766 148.384287 30.367165 -0.0 -143.983104 77.48067 -5.703737 75.194746 -26.175664 147.514713 -0.0 0.001319 0.002223 85.455053 -38.453114 175.433343 91.393565 -16.767 -4.040655 -45.446474 72.603436 -50.78972
12.8408 59.3657 -61.833000000000006 -15.925981 -59.715051 15.259068 1.316705 13.588369 0.0 2.220089 -14.848277 10.345124 -9.57202 22.576906 -79.526501 27.925156 10.360372 119.975099 -0.002516 0.0 -0.000962 0.003208 -0.0 -0.001206 -155.460213 -3.228001 161.776888 46.252315 -42.480646 39.988556 19.984533 -41.395221 -129.603052 -133.426356 39.778216 116.944636 -78.031146 38.689518 42.412193 87.239325 -51.81661 33.257321 -19.171125 24.114355 13.380938 -67.157421 48.767232 49.330405 -166.119891 -24.03956 145.077934 -168.213233 -19.495634 143.895053 -1.1e-05 -0.06094 -0.018508 7.452976 26.544799 4.021846 -143.939148 8.265335 -140.719136 -148.297571 14.103489 -142.245237 59.832869 -86.721186 81.633802 129.821912 -25.409226 134.231413 95.804071 -43.971891 104.09511 -17.988296 -38.498649 -9.928561 12.30523 11.515147 -3.094456 149.257675 -54.410397 -111.317354 153.515414 -21.181634 -121.759201 -145.428188 -67.230079 -86.91847 0.442409 1.276871 -0.247915 170.084702 -25.713439 -144.311439 145.122678 1.974654 179.748416 71.392771 -78.005307 92.744983 28.111576 -39.962056 27.125304 42.677105 -50.747244 43.730616 -0.000869 -0.000413 0.001117 -35.165132 -36.273442 -0.0 102.880711 61.457712 164.547234 32.971251 -15.407511 82.471188 -179.997925 75.748875 -0.002141 -127.138976 -4.191246 -0.0 82.924561 82.515923 -10.691884 -13.04687 -48.131215 -99.344862
12.906500000000001 59.1729 -61.6961 -15.530703 -60.056393 14.952369 1.268117 13.520756 -0.245147 2.353283 -14.742111 10.737885 -8.651168 26.550976 -102.610685 26.43451 20.221199 141.370905 -0.004158 0.0 -0.000503 -0.004248 0.0 -0.001559 -43.174899 -86.212349 -64.756 169.12221 -17.565511 165.880802 -82.134786 29.147461 -123.642834 -170.075557 -54.946379 163.62139 71.831604 -48.263473 25.791428 -150.389662 -11.232986 120.705509 -145.337767 -6.264289 118.678553 85.14003 -69.535682 34.148465 68.983852 -80.154011 40.576756 -154.205827 20.017634 138.524626 0.004618 0.876061 0.276249 -156.437074 -20.595274 174.270669 -158.213685 60.369325 -150.800616 33.076783 74.805863 0.540197 155.809107 -5.555236 -162.267415 -124.07084 88.627402 159.668322 0.89666 48.790524 -35.861772 6.765576 27.833316 -1.56259 -179.144664 -18.273233 -89.129406 72.622466 7.36275 -20.231814 166.82085 -43.973914 -122.062209 -96.667195 -70.124076 -41.057456 22.00445 41.041452 -17.006078 171.969583 -31.370139 -144.037611 145.121055 1.973159 179.749473 146.938346 -46.789591 169.179243 26.564628 -38.859811 25.608199 153.510594 36.048107 147.885342 -179.998747 75.749532 -0.0 149.485335 27.735625 -109.485189 -97.775251 -30.553673 1.807405 146.418754 37.416521 -28.754471 179.81666 75.749076 0.141307 -128.04354 -5.384557 85.800267 91.641283 -3.26327 -8.177223 -28.319399 -55.003183 -118.9354
12.9557 59.0237 -61.573100000000004 -15.369751 -60.391534 15.055312 1.981128 8.658779 -160.326304 1.966883 9.986542 170.317335 -9.715212 22.008491 -74.840351 28.279067 8.449291 115.954403 0.001074 -0.0 -0.000316 -0.004728 0.0 -0.00109 -151.972385 14.763907 157.37085 -153.649067 -7.397207 151.722633 168.653567 72.259219 54.633175 -140.176315 34.360092 123.836926 -121.364321 30.329539 71.958088 -158.686165 -22.213536 76.157879 -162.635964 -37.465917 122.648558 14.675982 -2.784433 -9.996104 6.53331 -20.414906 -2.717715 -13.448569 36.396161 10.645248 0.001136 -0.018637 -0.004883 -78.277006 78.780342 91.693711 7.927507 24.811764 7.002559 -9.168377 -23.854512 -10.153295 -3.269207 -26.755828 5.241295 -57.48633 24.697767 4.862292 -6.492849 -34.750901 -34.186751 8.696395 34.017391 -2.341066 89.13656 38.426958 -50.298778 114.72488 -13.025764 -74.050519 90.224958 41.073501 -75.79729 -83.287534 -65.194041 -36.583104 169.088448 -33.247682 -145.374373 -2.289041 2.415091 -0.678674 0.020089 -1.725292 0.541613 156.151069 -18.284108 -174.007951 -9.908575 32.238331 -8.581157 148.362399 13.034132 143.826612 0.0 -0.000137 5.4e-05 -36.840686 -36.675991 -0.0 96.584517 48.068743 -3.513416 -69.189386 -44.508547 -132.225091 -0.001943 -0.000137 -0.001458 84.936674 -36.714217 86.967951 62.212559 77.904537 -79.78016 -61.832212 -18.801688 7.018729
12.970300000000002 58.8916 -61.4625 -15.361645 -60.656566 15.276897 0.341385 13.113066 19.731849 -1.860049 -14.817122 -9.411828 -4.954915 14.219384 -21.989072 16.83514 -12.063018 65.604807 0.000174 -0.0 -0.001871 0.000174 -0.0 -0.001871 2.460113 -18.216343 -3.669015 -93.817709 -76.923587 -94.974133 59.706778 41.718977 72.058766 -24.198225 0.825535 3.225043 -103.19958 36.331463 60.111547 -135.127726 -18.641779 75.17057 2.325128 -3.867771 -1.261197 -79.277559 48.122132 62.253868 -160.675165 -6.667459 143.24536 -172.314871 -31.360972 143.653035 -145.119955 0.267955 -179.212039 -156.753104 19.846298 178.479116 -0.345006 -0.889819 -0.320387 -94.608764 -51.958575 -93.984606 130.41957 54.549044 -134.28749 33.121933 1.413311 -42.036021 1.914912 -8.083165 65.783481 -157.887762 -38.183196 -138.153531 -71.830993 -48.264168 -25.791412 146.439192 -1.945536 -115.930283 27.173238 30.46843 -19.89009 -4.977235 4.209018 0.726654 161.153556 -8.160627 -143.465146 172.317632 -31.36057 -143.652559 145.122371 1.974899 179.74992 156.867817 19.437649 -178.52086 -12.251779 41.425021 -10.280691 25.081145 -41.100696 25.145098 -0.003216 -0.000257 -0.003216 -38.865924 -37.397865 62.868211 96.15841 -2.780322 -169.271138 -147.630052 -56.929071 -58.531977 0.000182 0.001395 -0.000234 86.798085 -35.213861 -0.0 -92.07462 19.833266 172.116532 -153.523378 -32.881945 102.1307
